<?xml version="1.0" encoding="UTF-8"?>
<svg id="Layer_1" data-name="Layer 1" xmlns="http://www.w3.org/2000/svg" viewBox="0 0 3153.62 3905.21">
  <defs>
    <style>
      .cls-1 {
        fill: #fff;
      }
    </style>
  </defs>
  <path class="cls-1" d="M1565.43,426.59c6.01.12,24.15,1.58,73.24,11.4,33.71,6.74,76.75,16.37,127.94,28.63,91.86,22,186.94,46.94,227.54,57.59,4.04,1.06,7.57,1.99,10.55,2.77,148.79,38.95,297.31,81.93,441.43,127.74,145.67,46.31,291.53,97,433.51,150.67,10.78,4.08,20.65,8.15,30.93,12.8,20.3,123.36,29.85,231.48,29.96,338.16l.25,244.42-4.09,100.3c-4.34,106.44-16.06,213.85-34.83,319.26-18.48,103.79-44.39,208.92-77,312.47-32.75,104.03-73.59,205.51-124.87,310.25-37.83,77.24-80.4,152.2-126.55,222.8-46.68,71.41-98.38,140.46-153.68,205.24-158.79,186.01-346.16,343.56-557.12,468.44l-10.88,6.36c-89.01,52.03-183.1,94.15-266.1,131.3-3.1,1.39-4.24,1.43-4.25,1.43-.01,0-1.48-.02-5.29-1.61l-.04-.02-.04-.02c-114.28-47.63-225.31-104.97-330-170.43-105.12-65.73-205.34-140.58-297.89-222.47-116.31-102.9-221.09-218.52-311.43-343.64-90.42-125.22-167.22-261.12-228.27-403.93-51.92-121.45-93.99-249.11-125.04-379.42-30.6-128.44-50.98-261.45-60.57-395.33-18.45-257.26-11.25-513.38,20.81-741.1,32.48-14.1,68.11-29.1,108.81-44,153.11-56.08,291.97-102.87,424.54-143.03,130.56-39.6,263.08-77.08,393.88-111.42,130.14-34.16,262.89-66.32,394.57-95.61M1564.63,371.59c-3.41,0-6.18.22-8.23.67-268.2,59.57-532.01,128.85-795.38,208.73-144.96,43.92-286.1,92.23-427.49,144.02-41.35,15.14-78.09,30.5-117.81,47.81-13.98,6.08-23.57,19.37-25.8,34.89-35.09,245.88-39.76,509.66-21.95,757.98,19.53,272.81,82.3,540.76,189.89,792.44,125.93,294.57,314.13,555.06,553.83,767.14,190.92,168.94,408.49,304.66,643.18,402.47,9.41,3.94,18.04,5.88,26.52,5.88s17.49-2.09,26.71-6.22c91.89-41.13,182.15-81.85,271.4-134.02h0v.04c221.11-129.23,416.96-293.19,582.08-486.62,114.83-134.52,210.26-281.24,287.79-439.56,50.85-103.86,93.24-207.69,127.94-317.92,66.4-210.83,105.33-425.42,114.33-646l4.14-101.45-.25-245.57c-.13-127.07-13.51-249.24-35.49-375.36-20.37-10.25-38.31-18.43-60.94-26.99-288.7-109.13-581.3-201.87-880.47-280.18-64.31-16.83-386.39-102.18-454-102.18h0Z"/>
  <path class="cls-1" d="M2368.31,2932.88c-216.66,237.45-490.54,429.53-789.46,549.41-157.6-63.8-303.09-145.9-440.56-243.03-108.28-76.49-208.26-159.2-299.86-255.1-272.53-272.59-459.59-629.57-552.08-1002.92-52.79-211.83-75.3-427.52-77.12-645.97-1.44-174.46,6.46-346.14,32.04-517.87,170.48-69.63,341.62-126.78,515.55-180.73,202.27-62.73,404.04-117.75,609.6-166.41l209.2-49.72c214.06,45.05,423.76,99.98,634.31,159.95,237.85,67.75,471.07,144.49,702.87,235.06,15.83,96.12,23.14,190.67,28.09,287.86,6.8,133.96,7.12,262.81-1,397.17-23.95,522.61-211.52,1047.06-571.64,1432.29h.06ZM1333.6,1269.28c-31.85-18.03-64.93-22.04-99.35-22.42-43.29-.5-81.26,13.61-112.95,42.42-55.18,50.16-140.01,54.46-210.74,40.5-36.81-7.27-69.79-18.25-99.41-42.6-31.63-25.99-69-40.28-110.73-39.38-60.91,1.35-101.35,21.82-153.15,53.23-81.98,49.69-181.55,47.78-260.99-4.89-17.31-11.47-34.99-18.28-55.11-25.17l1.76,131.11c9.69,3.79,22.73,6.11,30.66,10.75l67.09,39.22c28.31,16.55,59.44,24.67,92.83,21.26,20-2.04,41.51-3.86,60.38-10.82,93.36-34.45,108.63-85.81,220.05-83.45,110.92,2.35,120.67,46.37,192.05,79,53.39,24.39,113.3,17.12,163.87-9.41,36.81-19.31,69.06-41.57,107.91-57.59,41.04-16.93,92.36-15.61,134.99-4.77,102.04,25.99,138.47,88.5,215.94,85.84l58.81-2.04.25,55.93c-20.28,6.14-39.78,6.02-61.16,4.7-119.44-7.37-146.59-66.34-216-86.21-58.03-16.62-117.97-3.76-168.01,27.59-23.51,14.73-44.14,28.37-69.66,39.94-75.96,34.39-166.59,26.87-234.69-24.64-42.79-32.35-85.74-50.79-142.86-46.12-48.15,3.95-92.23,23.29-133.9,50.76-70.85,46.68-161.77,55.4-237.54,15.86-27.15-14.14-50.35-30.06-78.69-39.56l9.69,132.86c78.41,26.9,90.01,61.45,178.04,64.52s97.66-37.24,180.8-72.61c47.37-20.16,101.23-27.59,151.36-14.14,40.6,10.88,75.15,32.51,110.35,54.17,48.47,29.81,104.46,40.69,160.14,27.06,52.76-12.92,99.04-60.82,148.44-75.84,80.29-24.39,166.56-8.81,234.5,39.66,25.14,17.93,49.94,35.71,82.33,36.43l86.18,1.91-1.19,57.68c-61.63,6.74-123.43-2.26-176.91-33.29-66.15-38.4-105.12-61.63-189.2-52.04-31.57,3.61-60,17.87-85.52,35.74-99.66,69.82-228.23,67.78-323.38-7.74-70.13-55.65-173.15-29.81-242.05,18.68-94.77,66.71-208.01,49.72-305.51-9.25l19.15,131.45c31.79,16.68,60.16,30.88,92.04,43.39,81.79,26.74,132.39,3.67,199.23-41.04,52.82-35.33,114.8-52.76,178.54-42.1,68.09,11.38,124.52,68.97,172.46,83.2,47.93,14.23,105.71,8.25,151.83-12.54,19.41-8.75,34.8-21.57,53.11-32.04,62.2-35.55,135.65-45.11,203.68-19.34s117.25,71.6,186.09,72.92l65.05,1.25,3.76,19.97c105.68-5.71,138.98,37.87,223.84,76.84,72.04,33.07,154.59,10.97,215.16-36.68,65.36-51.41,149.92-65.43,228.51-39.06,33.45,11.22,61.13,27.18,89.03,48.12,55.08,41.32,124.77,51.38,189.32,27.74,32.64-11.94,60.32-28.47,88.22-48.87,44.83-32.79,100.73-49.47,156.09-40.35,34.45,5.67,63.83,19.94,96.5,36.52,44.71-200.83,58.62-409.56,58.37-615.62-.16-152.24-9.15-300.08-30.47-452.16l-190.92-72.23c-172.99-65.43-348.86-116.72-527.53-167.25-199.17-56.34-396.99-107.53-598.35-150.73l-141.73,34.27c43.2,29.75,90.98,31.32,142.05,27.02l.13,52.67c-64.8,18.97-174.12-9.69-223.78-60.51-177.47,42.79-350.02,88.28-526.71,143.05,49.94,33.14,80.82,50.79,141.48,53.7,51.1,2.48,98.91-12.6,138.82-44.64,83.74-67.28,185.53-62.92,274.41-8.31,71.16,43.73,107.28,63.3,195.5,57.28.75,17.12.63,36.15-.75,53.51-38.06,12.85-72.32,6.46-108.69-3.07-102.61-26.87-119.82-73.77-185.53-84.68-43.73-7.27-95.3-1.98-131.67,24.67-51.63,37.84-105.96,67.43-171.77,68.28-61.79.78-118.91-21.47-168.26-57.37-21.1-15.36-43.73-28.43-70.54-32.51-160.86,48.56-316.07,102.64-471.38,164.49-4.42,1.76-7.46,11.82-3.76,13.64l41.92,20.66c27.71,13.64,54.36,26.02,85.46,27.53,54.52,2.63,103.64-12.85,148.79-41.73,111.67-71.45,195.44-78.91,309.05-1.35,58.41,39.88,130.2,55.24,196.66,25.9,83.74-36.96,113.61-91.64,220.52-78.41,44.92,5.55,85.59,24.39,124.9,47.15,72.51,41.95,97.25,52.39,185.91,42.57l.06,56.71c-33.89,20.88-133.36-1-162.61-18.12l-81.57-47.71c-61.51-35.99-137.75-26.11-197.19,14.17-106.47,72.17-207.1,80.13-317.83,8.93-41.76-26.87-88.13-44.96-138.35-43.58-40.19,1.13-73.52,20-106.87,40.47-112.92,69.32-198.98,70.48-319.43,7.27l-11.79,120.1c23.51,7.84,46.12,12.85,66.24,24.77,69.28,40.94,159.89,47.5,225.25-2.51,34.11-26.11,72.11-47.81,115.65-54.74,71.76-11.38,143.11,9.91,201.27,52.7,23.42,17.21,44.55,31.19,75.08,34.17,43.11,4.2,89.1,1,130.07-16.08,18.34-7.65,34.77-18.15,52.23-28.09,105.59-60.1,201.83-58.91,303.44,10.41,36.27,24.77,73.64,39.34,118.88,36.27l47.81-3.23-.66,57.37c-69.63,12.95-145.43,2.57-204.84-41.48-78.85-58.44-182.02-62.01-260.46,1.66-34.55,28.06-96.68,45.21-140.42,45.74-60.51.72-116.5-19.59-165.62-52.98-85.12-57.81-170.86-47.31-251.9,10.78-31.26,22.38-63.14,34.77-101.39,39.16-47.65,5.45-96.72,4.11-139.6-19.72-23.79-13.23-44.27-25.39-74.24-33.07l-5.08,123.43c40.32,9.41,92.86,47.18,121.76,55.46,42.39,12.16,93.64,15.39,135.37-.6,35.27-13.48,64.21-36.74,97.28-53.08,77.56-38.25,162.58-36.02,234.84,12.26,21.69,14.48,45.96,26.37,70.13,37.31,27.84,12.6,58.75,13.92,88.88,13.79,77.22-.34,113.52-57.03,183.43-80.19,69.91-23.17,146.97-13.67,208.73,24.45,49.25,30.41,60.82,55.52,134.02,54.67l69.85-.78-.91,56.24c-65.43,16.77-130.39,3.07-188.04-29.56l-54.77-31.01-.16.16v.04ZM1568.41,2510.69l-.72-59.91c135.93-22.04,178.95,91.48,309.18,94.05,38.69.75,80.23-6.05,110.29-31.32,100.67-84.71,243.84-89.38,346.92-6.52,21.85,17.56,47.28,25.61,74.74,31.19,77.12,15.61,125.84-3.73,188.29-47.15,21.66-15.08,45.9-25.93,70.82-34.77,25.96-44.64,46.84-89.32,67.53-139.19-41.16-8.34-91.01,25.68-123.71,47.97-78.69,53.58-184.18,70.22-269.92,22.07-63.3-35.55-121.23-80.51-199.79-69.85-46.46,6.3-87,26.4-124.74,53.51-62.36,44.8-135.81,57.12-209.92,33.8-82.8-26.08-115.46-93.02-234.44-83.58l1.13-60.07c52.2-3.51,106.94,1.47,148.82,32.42,46.24,34.17,96.68,62.76,157.72,60.94,45.46-1.35,90.01-19.09,127.06-44.99,92.17-64.39,218.95-68.25,310.52-.91,84.39,62.04,195.88,60.57,277.26-5.74,46.27-37.68,103.27-54.96,162.83-41.76l43.45-121.14c-74.39-37.59-134.71-14.64-196.66,28.9-65.68,46.15-143.71,67.34-221.9,47.12-33.29-8.62-63.86-21.47-88.91-44.42-70.6-64.68-180.55-61.42-254-5.8-96.28,72.89-224.06,72.73-321.81,2.26-42.57-30.72-90.85-42.51-144.21-40l-.75-57.43c116.59-14.01,151.39,46.05,231.27,77.12,70.98,27.62,144.4,14.89,204.87-29.34,91.73-67.12,212.99-77.5,305.54-6.8,28.47,21.73,59.35,40.38,94.71,49.35,52.29,13.29,108.28.03,151.7-32.07,75.05-55.49,163.3-88.44,258.23-48.87l31.85-116.59c-82.36-51.73-158.22-45.11-233.12,12.57-91.04,70.1-219.73,80.13-313.09,8.9-44.58-34.01-92.26-61.01-151.17-54.49-41.92,4.64-81.6,21.69-115.9,47.78-81.79,62.2-192.36,78.19-281.15,24.3l-78.28-47.53c-30.79-18.68-66.78-19.72-102.64-21.1l-3.89-22.23c-71.38,4.29-139.07.72-200.7-43.83-59.06-42.7-133.52-56.52-202.93-32.1-25.08,8.81-44.14,24.36-67.56,38.56-73.58,44.64-169.73,51.16-246.63,9.84-32.23-17.31-58.84-39.63-92.89-52.01-36.55-13.26-71.29-15.39-108.6-3.61-30.57,9.66-59.88,21.63-87.37,39.91-55.58,36.93-120.54,54.39-187.51,41.98-32.67-6.05-60.94-19.78-93.55-34.17,54.8,248.36,127.78,452.88,252.21,672.68,99.79,176.34,224.37,332.12,370.59,472.07,187.38,179.35,430.06,337.52,670.55,437.3,75.08-30.91,145.56-64.39,217.44-102.99-35.93-13.7-64.39-29.59-92.11-51.79-40.38-29.94-86.21-47.28-137.38-41.76l-1.32-55.3c68.44-7.81,141.92,23.07,197.19,59.28,36.12,23.67,73.8,38.97,118.75,39.34,109.35-66.96,212.71-141.33,309.3-229.86-49.03-11.35-97.91,2.7-137.09,31.79-60.85,45.18-133.65,70.73-210.55,60.44-126-16.9-149.95-109.13-277.89-92.86l.6-52.7c64.96-4.73,128.13,9.53,181.39,46.08,66.52,45.68,144.84,57.4,220.86,25.96,28.4-11.76,51.7-31.44,79.16-46.9,59.69-33.64,131.95-36.43,196.75-18.28l78.09-79.63c-31.57-27.18-65.05-50.13-106.34-59.13-59-12.85-121.04.6-169.54,36.3-64.68,47.65-143.83,67.09-222.62,49.66-81.17-17.99-120.79-68.37-162.93-81.95-31.04-10-61.04-9.69-93.96-8.5l-.34-54.8c35.24-7.68,68.72.06,103.3,7.62,34.58,7.56,62.98,25.14,92.8,45.61,53.7,36.81,123.33,44.27,185.72,28.78,63.14-15.68,52.86-46.24,139.79-75.02,74.58-24.7,154.71-15.05,219.36,30.85l54.39,38.62c35.17-37.78,64.61-71.98,96.56-114.3-153.8,10.31-168.04-90.66-270.9-96.18-57.46-3.07-111.1,19.25-155.84,53.36-71.82,54.71-189.79,56.3-267.48,18.68-67.28-32.57-87.53-76.4-196.44-70.91l1.1-56.71c58.78-3.76,117.81,3.92,165.31,38.87,61.89,45.55,136.91,66.27,212.9,44.61,59.69-17.02,88.13-69.57,159.23-79.06,46.4-6.21,94.02-9.12,139.35,4.17,69.47,20.35,99.54,80.98,183.4,82.89,28.43.66,56.15-1.25,82.58-11,41.98-59.25,80.44-115.34,115.27-182.14-20.38,8.93-35.8,19.44-52.45,30.13-44.2,28.43-93.49,38.65-145.68,35.49-94.65-5.8-105.09-47.21-189.57-81.86-91.98-37.75-158.29,4.23-232.59,47.37-53.83,31.26-118.1,39.66-179.26,30.44-117.81-17.78-127.6-111.45-257.79-89.79l-.16-.25.02.03Z"/>
  <path class="cls-1" d="M2379.69,1518.39c-27.49-26.74-33.48-71.1-37.87-105.59-3.89-30.66-14.42-48.22-36.24-68.25-13.36-12.26-25.55-26.02-42.64-36.96l-65.08,64.49c-10.35,10.25-15.71,20.91-17.18,36.4-7.81,82.04-26.68,105.37-79.44,158.6l-181.33,182.99c-16.46,16.58-39.28,15.99-54.77.31l-104.36-105.56c-9.66-9.78-6.93-25.39,2.1-34.49l226.94-228.32c11-11.07,22.23-21.88,36.49-26.33l113.71-35.65c29.63-9.28,45.99-44.58,71.76-66.93l-251.27-250.77-91.95-95.27c-20.6,3.04-40.72,21.73-64.05,4.92-7.71-5.55-22.92-21.54-15.58-32.35,24.89-28.28,50.29-52.51,76.62-78.78,4.61-4.61,14.52-10.31,20-10.5,16.58-.63,44.61,24.92,34.58,51.29-5.93,15.2.47,26.87,12.1,38.44l329.9,328.58c119.63-112.08,232.37-222.59,343.5-337.89l-4.14-24.23c-6.55-13.83-6.33-27.49,1.94-39.85,5.61-8.4,21.32-20.38,34.01-15.46,30.28,29.91,62.07,58.66,88.69,91.32,1.98,26.3-32.32,42.39-54.55,32.89-7.18-3.07-17.81-4.23-24.67-4.17l-115.18,117.34-222.34,227.57,72.92,72.39c39.81,4.89,78.06,8.68,114.18,26.33,15.89,7.77,29.97,21.19,43.11,34.01l214.4,209.86c14.48,14.17,19.88,33.45,3.92,49.91l-94.58,97.5c-14.17,14.61-34.23,20.6-50.47,3.95l-91.7-94.02-141.45-137.63-.03-.09h0Z"/>
  <path class="cls-1" d="M984.55,2657.22c56.43,47.56,166.66,25.36,178.88-41.63,4.42-24.17,1.47-48.4,2.35-73.52l133.61-.09c-1.29,47.46-7.37,90.85-22.48,134.93-21.19,61.89-70.54,106.94-135.46,121.51-102.77,23.07-248.14,5.05-303.72-97.62-23.14-42.76-30.63-91.61-30.88-140.35l-1.57-277.07c-.28-48.75,8.43-96.06,31.76-137.38,52.76-93.58,152.71-118.75,253.28-98.53,30.28,6.08,54.42,21.29,76.31,43.04l2.51-34.36,123.49.25.25,249.61-124.12.72c-2.51-24.3-3.42-46.84-8.09-68.81-9.75-45.8-49.41-73.36-94.9-71.98-27.37.85-55.24,2.82-77.4,19.15-26.46,19.47-34.08,51.51-33.86,84.3l2.04,315.57c.16,26.65,6.99,54.46,28.12,72.26h-.13.01Z"/>
</svg>